<?xml version="1.0" encoding="UTF-8" standalone="no"?>
<svg
   version="1.1"
   width="256"
   height="256"
   viewBox="0 0 256 256"
   xml:space="preserve"
   id="svg42"
   sodipodi:docname="soccer-459.svg"
   inkscape:version="1.2.1 (9c6d41e, 2022-07-14)"
   xmlns:inkscape="http://www.inkscape.org/namespaces/inkscape"
   xmlns:sodipodi="http://sodipodi.sourceforge.net/DTD/sodipodi-0.dtd"
   xmlns="http://www.w3.org/2000/svg"
   xmlns:svg="http://www.w3.org/2000/svg"><sodipodi:namedview
   id="namedview44"
   pagecolor="#ffffff"
   bordercolor="#000000"
   borderopacity="0.25"
   inkscape:showpageshadow="2"
   inkscape:pageopacity="0.0"
   inkscape:pagecheckerboard="0"
   inkscape:deskcolor="#d1d1d1"
   showgrid="false"
   inkscape:zoom="0.921875"
   inkscape:cx="-167.59322"
   inkscape:cy="189.28814"
   inkscape:window-width="1920"
   inkscape:window-height="1027"
   inkscape:window-x="1920"
   inkscape:window-y="25"
   inkscape:window-maximized="1"
   inkscape:current-layer="g40" />

<defs
   id="defs2">
</defs>
<g
   style="stroke: none; stroke-width: 0; stroke-dasharray: none; stroke-linecap: butt; stroke-linejoin: miter; stroke-miterlimit: 10; fill: none; fill-rule: nonzero; opacity: 1;"
   transform="translate(1.4222222222222314 1.4222222222222456) scale(2.84 2.84)"
   id="g40">
	<path
   d="M 44.5 89.5 L 17.53 57.735 c -5.233 -6.167 -8.404 -14.139 -8.404 -22.861 C 9.125 15.338 24.963 -0.5 44.5 -0.5 C 48.901 30.077 50.396 60.273 44.5 89.5 z"
   style="stroke:none;stroke-width:1;stroke-dasharray:none;stroke-linecap:butt;stroke-linejoin:miter;stroke-miterlimit:10;fill:#000000;fill-rule:nonzero;opacity:1"
   transform=" matrix(1 0 0 1 0 0) "
   stroke-linecap="round"
   id="path4" />
	<path
   d="M 44.5 89.5 l 26.97 -31.765 c 5.233 -6.167 8.404 -14.139 8.404 -22.861 C 79.875 15.338 64.037 -0.5 44.5 -0.5"
   style="stroke:none;stroke-width:1;stroke-dasharray:none;stroke-linecap:butt;stroke-linejoin:miter;stroke-miterlimit:10;fill:#000000;fill-rule:nonzero;opacity:1"
   transform=" matrix(1 0 0 1 0 0) "
   stroke-linecap="round"
   id="path6" />
	<path
   d="M 62.136 14.713 c -4.479 -4.254 -10.493 -6.903 -17.127 -7.032 l 1.501 6.207 l 7.644 3.133 L 62.136 14.713 z"
   style="stroke: none; stroke-width: 1; stroke-dasharray: none; stroke-linecap: butt; stroke-linejoin: miter; stroke-miterlimit: 10; fill: rgb(241,241,241); fill-rule: nonzero; opacity: 1;"
   transform=" matrix(1 0 0 1 0 0) "
   stroke-linecap="round"
   id="path8" />
	<polygon
   points="59.36,42.47 61.83,34.2 54.47,27.63 45.92,30.16 43.1,38.54 47.89,44.02 "
   style="stroke: none; stroke-width: 1; stroke-dasharray: none; stroke-linecap: butt; stroke-linejoin: miter; stroke-miterlimit: 10; fill: rgb(241,241,241); fill-rule: nonzero; opacity: 1;"
   transform="  matrix(1 0 0 1 0 0) "
   id="polygon10" />
	<polygon
   points="44.28,29.62 39.22,22.83 28.44,25.07 26.62,31.52 33.77,39.79 41.45,38.02 "
   style="stroke: none; stroke-width: 1; stroke-dasharray: none; stroke-linecap: butt; stroke-linejoin: miter; stroke-miterlimit: 10; fill: rgb(241,241,241); fill-rule: nonzero; opacity: 1;"
   transform="  matrix(1 0 0 1 0 0) "
   id="polygon12" />
	<path
   d="M 63.51 16.113 l -8.071 2.332 v 7.734 l 7.86 7.02 l 6.8 -0.512 C 69.952 26.317 67.493 20.518 63.51 16.113 z"
   style="stroke: none; stroke-width: 1; stroke-dasharray: none; stroke-linecap: butt; stroke-linejoin: miter; stroke-miterlimit: 10; fill: rgb(241,241,241); fill-rule: nonzero; opacity: 1;"
   transform=" matrix(1 0 0 1 0 0) "
   stroke-linecap="round"
   id="path14" />
	<path
   d="M 43.238 7.706 c -7.874 0.383 -14.816 4.313 -19.253 10.234 l 4.135 5.428 l 10.813 -2.247 l 5.864 -6.967 L 43.238 7.706 z"
   style="stroke: none; stroke-width: 1; stroke-dasharray: none; stroke-linecap: butt; stroke-linejoin: miter; stroke-miterlimit: 10; fill: rgb(241,241,241); fill-rule: nonzero; opacity: 1;"
   transform=" matrix(1 0 0 1 0 0) "
   stroke-linecap="round"
   id="path16" />
	<path
   d="M 43.448 58.086 v -0.077 l -0.986 -5.831 l -8.776 -2.613 l -5.452 3.492 c 4.209 3.468 9.531 5.63 15.362 5.832 l -0.136 -0.803 H 43.448 z"
   style="stroke: none; stroke-width: 1; stroke-dasharray: none; stroke-linecap: butt; stroke-linejoin: miter; stroke-miterlimit: 10; fill: rgb(241,241,241); fill-rule: nonzero; opacity: 1;"
   transform=" matrix(1 0 0 1 0 0) "
   stroke-linecap="round"
   id="path18" />
	<path
   d="M 32.813 48.073 v -6.744 l -7.52 -8.7 l -6.416 0.661 c 0 7.32 3.075 13.918 7.997 18.587 L 32.813 48.073 z"
   style="stroke: none; stroke-width: 1; stroke-dasharray: none; stroke-linecap: butt; stroke-linejoin: miter; stroke-miterlimit: 10; fill: rgb(241,241,241); fill-rule: nonzero; opacity: 1;"
   transform=" matrix(1 0 0 1 0 0) "
   stroke-linecap="round"
   id="path20" />
	<path
   d="M 48.304 45.707 l -4.167 6.019 l 1.211 7.163 c 7.015 -0.229 13.314 -3.273 17.805 -8.046 l -3.689 -6.649 L 48.304 45.707 z"
   style="stroke: none; stroke-width: 1; stroke-dasharray: none; stroke-linecap: butt; stroke-linejoin: miter; stroke-miterlimit: 10; fill: rgb(241,241,241); fill-rule: nonzero; opacity: 1;"
   transform=" matrix(1 0 0 1 0 0) "
   stroke-linecap="round"
   id="path22" />
	
	
	
	
	<path
   d="M 32.813 41.329 v 6.744 l -5.938 3.803 c 0.434 0.411 0.877 0.813 1.339 1.193 l 5.472 -3.505 l 8.776 2.613 l 1.135 6.711 c 0.3 0.01 0.6 0.023 0.903 0.023 c 0.285 0 0.566 -0.012 0.849 -0.021 l -1.211 -7.164 l 4.167 -6.019 l 11.16 -1.513 l 3.69 6.65 c 0.039 -0.041 0.079 -0.081 0.117 -0.123 c 0.13 -0.138 0.254 -0.279 0.38 -0.419 c 1.817 -2.044 3.314 -4.379 4.407 -6.929 c 0.05 -0.119 0.099 -0.238 0.147 -0.357 c 0.063 -0.154 0.123 -0.31 0.184 -0.466 c 1.094 -2.907 1.668 -6.1 1.725 -9.576 c -0.001 -0.096 -0.005 -0.191 -0.007 -0.287 L 63.3 33.2 l -7.86 -7.02 v -7.734 l 8.071 -2.332 c -0.439 -0.485 -0.9 -0.95 -1.375 -1.4 l -7.983 2.307 l -7.644 -3.133 l -1.501 -6.207 c -0.17 -0.003 -0.338 -0.013 -0.509 -0.013 c -0.424 0 -0.845 0.012 -1.264 0.032 l 1.56 6.453 l -5.864 6.967 L 28.12 23.367 l -4.135 -5.428 c -0.002 0.002 -0.003 0.004 -0.005 0.006 c -1.658 2.275 -2.887 4.631 -3.725 7.061 c -0.056 0.165 -0.114 0.329 -0.167 0.495 c -0.046 0.143 -0.088 0.287 -0.131 0.43 c -0.078 0.26 -0.153 0.522 -0.223 0.785 c -0.026 0.098 -0.052 0.196 -0.077 0.294 c -0.087 0.344 -0.168 0.691 -0.24 1.041 c -0.007 0.032 -0.015 0.064 -0.021 0.097 c -0.082 0.402 -0.154 0.807 -0.217 1.216 c -0.007 0.043 -0.011 0.086 -0.017 0.128 c -0.05 0.335 -0.092 0.672 -0.129 1.011 c -0.014 0.135 -0.027 0.271 -0.039 0.407 c -0.024 0.255 -0.043 0.512 -0.059 0.77 c -0.009 0.149 -0.019 0.298 -0.026 0.448 c -0.017 0.385 -0.029 0.772 -0.029 1.161 l 6.416 -0.66 L 32.813 41.329 z M 45.921 30.164 l 8.545 -2.537 l 7.364 6.577 l -2.472 8.262 L 47.893 44.02 l -4.796 -5.481 L 45.921 30.164 z M 28.436 25.066 l 10.779 -2.24 l 5.065 6.796 l -2.829 8.393 l -7.686 1.774 l -7.143 -8.264 L 28.436 25.066 z"
   style="stroke:none;stroke-width:1;stroke-dasharray:none;stroke-linecap:butt;stroke-linejoin:miter;stroke-miterlimit:10;fill:#000000;fill-rule:nonzero;opacity:1"
   transform=" matrix(1 0 0 1 0 0) "
   stroke-linecap="round"
   id="path32" />
	<path
   d="M 43.475 8.688 c 0.338 -0.34 0.672 -0.681 1.025 -1.02 c -0.424 0 -0.845 0.012 -1.264 0.032 L 43.475 8.688 z"
   style="stroke: none; stroke-width: 1; stroke-dasharray: none; stroke-linecap: butt; stroke-linejoin: miter; stroke-miterlimit: 10; fill: rgb(63,64,66); fill-rule: nonzero; opacity: 1;"
   transform=" matrix(1 0 0 1 0 0) "
   stroke-linecap="round"
   id="path34" />
	
	<path
   d="M 43.597 58.889 c 0.3 0.01 0.6 0.023 0.903 0.023 c -0.378 -0.392 -0.737 -0.782 -1.098 -1.173 L 43.597 58.889 z"
   style="stroke: none; stroke-width: 1; stroke-dasharray: none; stroke-linecap: butt; stroke-linejoin: miter; stroke-miterlimit: 10; fill: rgb(63,64,66); fill-rule: nonzero; opacity: 1;"
   transform=" matrix(1 0 0 1 0 0) "
   stroke-linecap="round"
   id="path38" />
</g>
</svg>
