<?xml version="1.0" encoding="UTF-8" standalone="no"?>
<svg
   version="1.1"
   width="256"
   height="256"
   viewBox="0 0 256 256"
   xml:space="preserve"
   id="svg42"
   sodipodi:docname="soccer-459.svg"
   inkscape:version="1.2.1 (9c6d41e, 2022-07-14)"
   xmlns:inkscape="http://www.inkscape.org/namespaces/inkscape"
   xmlns:sodipodi="http://sodipodi.sourceforge.net/DTD/sodipodi-0.dtd"
   xmlns:xlink="http://www.w3.org/1999/xlink"
   xmlns="http://www.w3.org/2000/svg"
   xmlns:svg="http://www.w3.org/2000/svg"><sodipodi:namedview
   id="namedview44"
   pagecolor="#ffffff"
   bordercolor="#000000"
   borderopacity="0.25"
   inkscape:showpageshadow="2"
   inkscape:pageopacity="0.0"
   inkscape:pagecheckerboard="0"
   inkscape:deskcolor="#d1d1d1"
   showgrid="false"
   inkscape:zoom="1.84375"
   inkscape:cx="167.32203"
   inkscape:cy="165.15254"
   inkscape:window-width="1920"
   inkscape:window-height="1027"
   inkscape:window-x="1920"
   inkscape:window-y="25"
   inkscape:window-maximized="0"
   inkscape:current-layer="g40" />

<defs
   id="defs2"><inkscape:path-effect
   effect="fillet_chamfer"
   id="path-effect10056"
   is_visible="true"
   lpeversion="1"
   nodesatellites_param="F,0,0,1,0,2,0,1 @ F,0,0,1,0,2,0,1 @ F,0,0,1,0,2,0,1 @ F,0,0,1,0,2,0,1"
   unit="px"
   method="bezier"
   mode="F"
   radius="2"
   chamfer_steps="1"
   flexible="false"
   use_knot_distance="true"
   apply_no_radius="true"
   apply_with_radius="true"
   only_selected="false"
   hide_knots="false" /><linearGradient
   inkscape:collect="always"
   id="linearGradient4780"><stop
     style="stop-color:#95fc8e;stop-opacity:1;"
     offset="0"
     id="stop4776" /><stop
     style="stop-color:#38bdf8;stop-opacity:1;"
     offset="1"
     id="stop5516" /></linearGradient>
<linearGradient
   inkscape:collect="always"
   xlink:href="#linearGradient4780"
   id="linearGradient4784"
   x1="22.092398"
   y1="-41.010811"
   x2="22.02494"
   y2="139.58095"
   gradientUnits="userSpaceOnUse"
   gradientTransform="matrix(0.62504746,0,0,0.50474321,30.667966,19.447067)" /><inkscape:path-effect
   effect="fillet_chamfer"
   id="path-effect10056-6"
   is_visible="true"
   lpeversion="1"
   nodesatellites_param="F,0,0,1,0,2,0,1 @ F,0,0,1,0,2,0,1 @ F,0,0,1,0,2,0,1 @ F,0,0,1,0,2,0,1"
   unit="px"
   method="bezier"
   mode="F"
   radius="2"
   chamfer_steps="1"
   flexible="false"
   use_knot_distance="true"
   apply_no_radius="true"
   apply_with_radius="true"
   only_selected="false"
   hide_knots="false" /><inkscape:path-effect
   effect="fillet_chamfer"
   id="path-effect10056-8"
   is_visible="true"
   lpeversion="1"
   nodesatellites_param="F,0,0,1,0,2,0,1 @ F,0,0,1,0,2,0,1 @ F,0,0,1,0,2,0,1 @ F,0,0,1,0,2,0,1"
   unit="px"
   method="bezier"
   mode="F"
   radius="2"
   chamfer_steps="1"
   flexible="false"
   use_knot_distance="true"
   apply_no_radius="true"
   apply_with_radius="true"
   only_selected="false"
   hide_knots="false" /><inkscape:path-effect
   effect="fillet_chamfer"
   id="path-effect10056-8-1"
   is_visible="true"
   lpeversion="1"
   nodesatellites_param="F,0,0,1,0,2,0,1 @ F,0,0,1,0,2,0,1 @ F,0,0,1,0,2,0,1 @ F,0,0,1,0,2,0,1"
   unit="px"
   method="bezier"
   mode="F"
   radius="2"
   chamfer_steps="1"
   flexible="false"
   use_knot_distance="true"
   apply_no_radius="true"
   apply_with_radius="true"
   only_selected="false"
   hide_knots="false" /><inkscape:path-effect
   effect="fillet_chamfer"
   id="path-effect10056-8-18"
   is_visible="true"
   lpeversion="1"
   nodesatellites_param="F,0,0,1,0,2,0,1 @ F,0,0,1,0,2,0,1 @ F,0,0,1,0,2,0,1 @ F,0,0,1,0,2,0,1"
   unit="px"
   method="bezier"
   mode="F"
   radius="2"
   chamfer_steps="1"
   flexible="false"
   use_knot_distance="true"
   apply_no_radius="true"
   apply_with_radius="true"
   only_selected="false"
   hide_knots="false" /><inkscape:path-effect
   effect="fillet_chamfer"
   id="path-effect10056-8-7"
   is_visible="true"
   lpeversion="1"
   nodesatellites_param="F,0,0,1,0,2,0,1 @ F,0,0,1,0,2,0,1 @ F,0,0,1,0,2,0,1 @ F,0,0,1,0,2,0,1"
   unit="px"
   method="bezier"
   mode="F"
   radius="2"
   chamfer_steps="1"
   flexible="false"
   use_knot_distance="true"
   apply_no_radius="true"
   apply_with_radius="true"
   only_selected="false"
   hide_knots="false" /><inkscape:path-effect
   effect="fillet_chamfer"
   id="path-effect10056-8-4"
   is_visible="true"
   lpeversion="1"
   nodesatellites_param="F,0,0,1,0,2,0,1 @ F,0,0,1,0,2,0,1 @ F,0,0,1,0,2,0,1 @ F,0,0,1,0,2,0,1"
   unit="px"
   method="bezier"
   mode="F"
   radius="2"
   chamfer_steps="1"
   flexible="false"
   use_knot_distance="true"
   apply_no_radius="true"
   apply_with_radius="true"
   only_selected="false"
   hide_knots="false" /><inkscape:path-effect
   effect="fillet_chamfer"
   id="path-effect10056-6-1"
   is_visible="true"
   lpeversion="1"
   nodesatellites_param="F,0,0,1,0,2,0,1 @ F,0,0,1,0,2,0,1 @ F,0,0,1,0,2,0,1 @ F,0,0,1,0,2,0,1"
   unit="px"
   method="bezier"
   mode="F"
   radius="2"
   chamfer_steps="1"
   flexible="false"
   use_knot_distance="true"
   apply_no_radius="true"
   apply_with_radius="true"
   only_selected="false"
   hide_knots="false" /><inkscape:path-effect
   effect="fillet_chamfer"
   id="path-effect10056-6-5"
   is_visible="true"
   lpeversion="1"
   nodesatellites_param="F,0,0,1,0,2,0,1 @ F,0,0,1,0,2,0,1 @ F,0,0,1,0,2,0,1 @ F,0,0,1,0,2,0,1"
   unit="px"
   method="bezier"
   mode="F"
   radius="2"
   chamfer_steps="1"
   flexible="false"
   use_knot_distance="true"
   apply_no_radius="true"
   apply_with_radius="true"
   only_selected="false"
   hide_knots="false" /><inkscape:path-effect
   effect="fillet_chamfer"
   id="path-effect10056-8-9"
   is_visible="true"
   lpeversion="1"
   nodesatellites_param="F,0,0,1,0,2,0,1 @ F,0,0,1,0,2,0,1 @ F,0,0,1,0,2,0,1 @ F,0,0,1,0,2,0,1"
   unit="px"
   method="bezier"
   mode="F"
   radius="2"
   chamfer_steps="1"
   flexible="false"
   use_knot_distance="true"
   apply_no_radius="true"
   apply_with_radius="true"
   only_selected="false"
   hide_knots="false" /></defs>
<g
   style="stroke: none; stroke-width: 0; stroke-dasharray: none; stroke-linecap: butt; stroke-linejoin: miter; stroke-miterlimit: 10; fill: none; fill-rule: nonzero; opacity: 1;"
   transform="translate(1.4222222222222314 1.4222222222222456) scale(2.84 2.84)"
   id="g40">
	<path
   id="path2023"
   style="fill:url(#linearGradient4784);fill-opacity:1;stroke:none;stroke-width:0.31831;stroke-dasharray:none;stroke-opacity:1"
   inkscape:transform-center-x="-0.66248351"
   inkscape:transform-center-y="17.18915"
   d="M 44.56964,-0.58820587 A 35.338581,35.338581 0 0 0 9.2311442,34.750975 35.338581,35.338581 0 0 0 15.174421,54.317298 c 7.864882,14.113204 23.926479,35.273409 28.657983,35.322677 4.822433,0.05022 22.123601,-21.58744 30.258308,-35.520052 6.55e-4,-0.0011 0.0014,-0.0023 0.0021,-0.0034 A 35.338581,35.338581 0 0 0 79.908136,34.750975 35.338581,35.338581 0 0 0 44.56964,-0.58820587 Z" />
	
	
	
	
	
	
	
	
	
	
	
	
	
	
	
	
	
<path
   id="path10050"
   style="fill:#ffffff;fill-opacity:1;stroke:none;stroke-width:0.31831;stroke-dasharray:none;stroke-opacity:1"
   d="M 44.56964 2.6049614 A 19.378338 19.378338 0 0 0 25.191064 21.983538 A 19.378338 19.378338 0 0 0 44.56964 41.362114 A 19.378338 19.378338 0 0 0 46.65687 41.235573 L 46.65687 46.451242 C 46.65687 47.555809 47.55288 48.451132 48.657448 48.451132 L 49.653955 48.451132 C 50.75852 48.451132 51.653845 47.555809 51.653845 46.451242 L 51.653845 40.003867 A 19.378338 19.378338 0 0 0 63.948216 21.983538 A 19.378338 19.378338 0 0 0 44.56964 2.6049614 z M 44.56964 6.11646 A 15.86728 15.86728 0 0 1 60.436718 21.983538 A 15.86728 15.86728 0 0 1 44.56964 37.850615 A 15.86728 15.86728 0 0 1 28.702563 21.983538 A 15.86728 15.86728 0 0 1 44.56964 6.11646 z " /><g
   id="g11270-6-6"
   style="fill:#ffffff;fill-rule:nonzero;stroke:none;stroke-width:0;stroke-linecap:butt;stroke-linejoin:miter;stroke-miterlimit:10;stroke-dasharray:none"
   transform="rotate(144,44.561197,22.515943)"><path
     id="path10050-9-1-2-3"
     style="fill:#ffffff;fill-opacity:1;fill-rule:nonzero;stroke:none;stroke-width:0.260637;stroke-linecap:butt;stroke-linejoin:miter;stroke-miterlimit:10;stroke-dasharray:none;stroke-opacity:1"
     d="m 44.56964,6.11646 a 15.86728,15.86728 0 0 0 -6.071193,1.2234541 c 0.326062,0.7642785 5.344,4.3754299 6.089074,4.3725239 0.737528,-0.0029 5.629166,-3.5768845 6.03887,-4.3931556 A 15.86728,15.86728 0 0 0 44.56964,6.11646 Z" /><path
     style="fill:#ffffff;fill-opacity:1;fill-rule:nonzero;stroke:none;stroke-width:0.31831;stroke-linecap:butt;stroke-linejoin:miter;stroke-miterlimit:10;stroke-dasharray:none;stroke-opacity:1"
     id="rect10054-4-5-8-0"
     width="2.3705802"
     height="12.8326"
     x="43.38435"
     y="7.0958085"
     sodipodi:type="rect"
     d="m 43.38435,7.0958085 h 2.37058 V 19.928408 h -2.37058 z" /><path
     sodipodi:type="star"
     style="fill:#ffffff;fill-opacity:1;stroke:none;stroke-width:0.31831;stroke-dasharray:none;stroke-opacity:1"
     id="path10327-5-8"
     inkscape:flatsided="true"
     sodipodi:sides="5"
     sodipodi:cx="111.21951"
     sodipodi:cy="41.803192"
     sodipodi:r1="35.609165"
     sodipodi:r2="28.80842"
     sodipodi:arg1="0.85399267"
     sodipodi:arg2="1.4823112"
     inkscape:rounded="0.1"
     inkscape:randomized="0"
     d="M 134.61396,68.64928 C 131.45801,71.399463 96.507468,74.500163 92.916648,72.348532 89.325828,70.196901 75.576574,37.915125 76.513272,33.835162 77.44997,29.755199 103.90301,6.7032642 108.07274,6.3333391 c 4.16973,-0.3699252 34.26786,17.6649709 35.9082,21.5163079 1.64034,3.851337 -6.21103,38.049451 -9.36698,40.799633 z"
     transform="matrix(0.07107391,-0.16508529,0.16508529,0.07107391,29.755299,37.905532)"
     inkscape:transform-center-x="-0.020054466"
     inkscape:transform-center-y="-1.2642751" /></g><g
   id="g10213"
   transform="translate(-0.29762116)"
   style="fill:#ffffff"><path
     style="fill:#ffffff;fill-opacity:1;fill-rule:nonzero;stroke:none;stroke-width:0.31831;stroke-linecap:butt;stroke-linejoin:miter;stroke-miterlimit:10;stroke-dasharray:none;stroke-opacity:1"
     id="rect10054-4-78"
     width="4.9965053"
     height="19.850981"
     x="37.783253"
     y="37.783253"
     inkscape:path-effect="#path-effect10056-8-18"
     d="m 39.783253,37.783253 h 0.996505 c 1.104569,0 2,0.89543 2,2 v 15.85098 c 0,1.10457 -0.895431,2 -2,2 h -0.996505 c -1.10457,0 -2,-0.89543 -2,-2 v -15.85098 c 0,-1.10457 0.89543,-2 2,-2 z"
     sodipodi:type="rect" /><path
     style="fill:#ffffff;fill-opacity:1;fill-rule:nonzero;stroke:none;stroke-width:0.31831;stroke-linecap:butt;stroke-linejoin:miter;stroke-miterlimit:10;stroke-dasharray:none;stroke-opacity:1"
     id="rect10054-7-5"
     width="4.9965053"
     height="10.668214"
     x="37.783253"
     y="61.14529"
     inkscape:path-effect="#path-effect10056-6-1"
     d="m 39.783253,61.14529 h 0.996505 c 1.104569,0 2,0.895431 2,2 l 0,6.668214 c 0,1.10457 -0.895431,2 -2,2 h -0.996505 c -1.10457,0 -2,-0.89543 -2,-2 V 63.14529 c 0,-1.104569 0.89543,-2 2,-2 z"
     sodipodi:type="rect" /><path
     style="fill:#ffffff;fill-opacity:1;fill-rule:nonzero;stroke:none;stroke-width:0.31831;stroke-linecap:butt;stroke-linejoin:miter;stroke-miterlimit:10;stroke-dasharray:none;stroke-opacity:1"
     id="rect10054-7-58"
     width="4.9965053"
     height="8.5075636"
     x="37.783253"
     y="74.919441"
     inkscape:path-effect="#path-effect10056-6-5"
     d="m 39.783253,74.919441 h 0.996505 c 1.104569,0 2,0.895431 2,2 v 4.507564 c 0,1.104569 -0.895431,2 -2,2 h -0.996505 c -1.10457,0 -2,-0.895431 -2,-2 v -4.507564 c 0,-1.104569 0.89543,-2 2,-2 z"
     sodipodi:type="rect" /></g><path
   style="fill:#ffffff;fill-opacity:1;fill-rule:nonzero;stroke:none;stroke-width:0.31831;stroke-linecap:butt;stroke-linejoin:miter;stroke-miterlimit:10;stroke-dasharray:none;stroke-opacity:1"
   id="rect10054-4-74"
   width="4.9965053"
   height="29.57391"
   x="46.657143"
   y="50.477074"
   inkscape:path-effect="#path-effect10056-8-7"
   d="m 48.657143,50.477074 h 0.996505 c 1.104569,0 2,0.89543 2,2 v 25.573909 c 0,1.10457 -0.895431,2 -2,2 h -0.996505 c -1.10457,0 -2,-0.89543 -2,-2 V 52.477074 c 0,-1.10457 0.89543,-2 2,-2 z"
   sodipodi:type="rect" /><g
   id="g10204"
   transform="translate(-0.59020844)"
   style="fill:#ffffff"><path
     style="fill:#ffffff;fill-opacity:1;fill-rule:nonzero;stroke:none;stroke-width:0.31831;stroke-linecap:butt;stroke-linejoin:miter;stroke-miterlimit:10;stroke-dasharray:none;stroke-opacity:1"
     id="rect10054-4-7"
     width="4.9965053"
     height="19.850981"
     x="56.418865"
     y="31.3013"
     inkscape:path-effect="#path-effect10056-8-1"
     d="m 58.418865,31.3013 h 0.996505 c 1.10457,0 2,0.895431 2,2 v 15.850981 c 0,1.104569 -0.89543,2 -2,2 h -0.996505 c -1.104569,0 -2,-0.895431 -2,-2 V 33.3013 c 0,-1.104569 0.895431,-2 2,-2 z"
     sodipodi:type="rect" /><path
     style="fill:#ffffff;fill-opacity:1;fill-rule:nonzero;stroke:none;stroke-width:0.31831;stroke-linecap:butt;stroke-linejoin:miter;stroke-miterlimit:10;stroke-dasharray:none;stroke-opacity:1"
     id="rect10054-7"
     width="4.9965053"
     height="9.5878887"
     x="56.418865"
     y="52.907806"
     inkscape:path-effect="#path-effect10056-6"
     d="m 58.418865,52.907806 h 0.996505 c 1.10457,0 2,0.895431 2,2 l 0,5.587889 c 0,1.10457 -0.89543,2 -2,2 h -0.996505 c -1.104569,0 -2,-0.89543 -2,-2 l 0,-5.587889 c 0,-1.104569 0.895431,-2 2,-2 z"
     sodipodi:type="rect" /></g><g
   id="g10208"
   transform="translate(-0.59020844)"
   style="fill:#ffffff"><path
     style="fill:#ffffff;fill-opacity:1;stroke:none;stroke-width:0.31831;stroke-dasharray:none;stroke-opacity:1"
     id="rect10054"
     width="4.9965053"
     height="19.850981"
     x="28.904327"
     y="30.963696"
     inkscape:path-effect="#path-effect10056"
     d="m 30.904327,30.963696 h 0.996506 c 1.104569,0 2,0.89543 2,2 v 15.85098 c 0,1.10457 -0.895431,2 -2,2 h -0.996506 c -1.104569,0 -2,-0.89543 -2,-2 l 0,-15.85098 c 0,-1.10457 0.895431,-2 2,-2 z"
     sodipodi:type="rect" /><path
     style="fill:#ffffff;fill-opacity:1;fill-rule:nonzero;stroke:none;stroke-width:0.31831;stroke-linecap:butt;stroke-linejoin:miter;stroke-miterlimit:10;stroke-dasharray:none;stroke-opacity:1"
     id="rect10054-4-9"
     width="4.9965053"
     height="13.909191"
     x="28.904327"
     y="56.959026"
     inkscape:path-effect="#path-effect10056-8-4"
     d="m 30.904327,56.959026 h 0.996506 c 1.104569,0 2,0.895431 2,2 v 9.909191 c 0,1.10457 -0.895431,2 -2,2 h -0.996506 c -1.104569,0 -2,-0.89543 -2,-2 l 0,-9.909191 c 0,-1.104569 0.895431,-2 2,-2 z"
     sodipodi:type="rect" /></g><g
   id="g11270"
   style="fill:#ffffff"><path
     id="path10050-9-1"
     style="fill:#ffffff;fill-opacity:1;fill-rule:nonzero;stroke:none;stroke-width:0.260637;stroke-linecap:butt;stroke-linejoin:miter;stroke-miterlimit:10;stroke-dasharray:none;stroke-opacity:1"
     d="M 44.56964 6.11646 A 15.86728 15.86728 0 0 0 38.498447 7.3399141 C 38.824509 8.1041926 43.842447 11.715344 44.587521 11.712438 C 45.325049 11.709562 50.216687 8.1355535 50.626391 7.3192824 A 15.86728 15.86728 0 0 0 44.56964 6.11646 z " /><path
     style="fill:#ffffff;fill-opacity:1;fill-rule:nonzero;stroke:none;stroke-width:0.31831;stroke-linecap:butt;stroke-linejoin:miter;stroke-miterlimit:10;stroke-dasharray:none;stroke-opacity:1"
     id="rect10054-4-5"
     width="2.3705802"
     height="12.8326"
     x="43.38435"
     y="7.0958085"
     sodipodi:type="rect"
     d="m 43.38435,7.0958085 h 2.37058 V 19.928408 h -2.37058 z" /><path
     sodipodi:type="star"
     style="fill:#ffffff;fill-opacity:1;stroke:none;stroke-width:0.31831;stroke-dasharray:none;stroke-opacity:1"
     id="path10327"
     inkscape:flatsided="true"
     sodipodi:sides="5"
     sodipodi:cx="111.21951"
     sodipodi:cy="41.803192"
     sodipodi:r1="35.609165"
     sodipodi:r2="28.80842"
     sodipodi:arg1="0.85399267"
     sodipodi:arg2="1.4823112"
     inkscape:rounded="0.1"
     inkscape:randomized="0"
     d="M 134.61396,68.64928 C 131.45801,71.399463 96.507468,74.500163 92.916648,72.348532 89.325828,70.196901 75.576574,37.915125 76.513272,33.835162 77.44997,29.755199 103.90301,6.7032642 108.07274,6.3333391 c 4.16973,-0.3699252 34.26786,17.6649709 35.9082,21.5163079 1.64034,3.851337 -6.21103,38.049451 -9.36698,40.799633 z"
     transform="matrix(0.07107391,-0.16508529,0.16508529,0.07107391,29.755299,37.905532)"
     inkscape:transform-center-x="-0.020054466"
     inkscape:transform-center-y="-1.2642751" /></g><path
   id="path10050-9-1-2"
   style="fill:#ffffff;fill-opacity:1;fill-rule:nonzero;stroke:none;stroke-width:0.260637;stroke-linecap:butt;stroke-linejoin:miter;stroke-miterlimit:10;stroke-dasharray:none;stroke-opacity:1"
   d="m 60.160641,17.456254 a 15.86728,15.86728 0 0 0 -3.039676,-5.39598 c -0.626113,0.546279 -2.509894,6.434528 -2.27689,7.142238 0.230667,0.700535 5.141328,4.248337 6.044253,4.385747 a 15.86728,15.86728 0 0 0 -0.727687,-6.132005 z" /><path
   style="fill:#ffffff;fill-opacity:1;fill-rule:nonzero;stroke:none;stroke-width:0.31831;stroke-linecap:butt;stroke-linejoin:miter;stroke-miterlimit:10;stroke-dasharray:none;stroke-opacity:1"
   id="rect10054-4-5-8"
   width="2.3705802"
   height="12.8326"
   x="34.007256"
   y="-50.842541"
   sodipodi:type="rect"
   d="m 34.007256,-50.842541 h 2.37058 v 12.8326 h -2.37058 z"
   transform="rotate(72)" /><g
   id="g11270-6-6-8"
   style="fill:#ffffff;fill-rule:nonzero;stroke:none;stroke-width:0;stroke-linecap:butt;stroke-linejoin:miter;stroke-miterlimit:10;stroke-dasharray:none"
   transform="rotate(-144,44.561198,22.515943)"><path
     id="path10050-9-1-2-3-4"
     style="fill:#ffffff;fill-opacity:1;fill-rule:nonzero;stroke:none;stroke-width:0.260637;stroke-linecap:butt;stroke-linejoin:miter;stroke-miterlimit:10;stroke-dasharray:none;stroke-opacity:1"
     d="m 44.56964,6.11646 a 15.86728,15.86728 0 0 0 -6.071193,1.2234541 c 0.326062,0.7642785 5.344,4.3754299 6.089074,4.3725239 0.737528,-0.0029 5.629166,-3.5768845 6.03887,-4.3931556 A 15.86728,15.86728 0 0 0 44.56964,6.11646 Z" /><path
     style="fill:#ffffff;fill-opacity:1;fill-rule:nonzero;stroke:none;stroke-width:0.31831;stroke-linecap:butt;stroke-linejoin:miter;stroke-miterlimit:10;stroke-dasharray:none;stroke-opacity:1"
     id="rect10054-4-5-8-0-0"
     width="2.3705802"
     height="12.8326"
     x="43.38435"
     y="7.0958085"
     sodipodi:type="rect"
     d="m 43.38435,7.0958085 h 2.37058 V 19.928408 h -2.37058 z" /><path
     sodipodi:type="star"
     style="fill:#ffffff;fill-opacity:1;stroke:none;stroke-width:0.31831;stroke-dasharray:none;stroke-opacity:1"
     id="path10327-5-8-0"
     inkscape:flatsided="true"
     sodipodi:sides="5"
     sodipodi:cx="111.21951"
     sodipodi:cy="41.803192"
     sodipodi:r1="35.609165"
     sodipodi:r2="28.80842"
     sodipodi:arg1="0.85399267"
     sodipodi:arg2="1.4823112"
     inkscape:rounded="0.1"
     inkscape:randomized="0"
     d="M 134.61396,68.64928 C 131.45801,71.399463 96.507468,74.500163 92.916648,72.348532 89.325828,70.196901 75.576574,37.915125 76.513272,33.835162 77.44997,29.755199 103.90301,6.7032642 108.07274,6.3333391 c 4.16973,-0.3699252 34.26786,17.6649709 35.9082,21.5163079 1.64034,3.851337 -6.21103,38.049451 -9.36698,40.799633 z"
     transform="matrix(0.07107391,-0.16508529,0.16508529,0.07107391,29.755299,37.905532)"
     inkscape:transform-center-x="-0.020054466"
     inkscape:transform-center-y="-1.2642751" /></g><g
   id="g11270-6-6-8-7"
   style="fill:#ffffff;fill-rule:nonzero;stroke:none;stroke-width:0;stroke-linecap:butt;stroke-linejoin:miter;stroke-miterlimit:10;stroke-dasharray:none"
   transform="rotate(-72,44.561198,22.515943)"><path
     id="path10050-9-1-2-3-4-2"
     style="fill:#ffffff;fill-opacity:1;fill-rule:nonzero;stroke:none;stroke-width:0.260637;stroke-linecap:butt;stroke-linejoin:miter;stroke-miterlimit:10;stroke-dasharray:none;stroke-opacity:1"
     d="m 44.56964,6.11646 a 15.86728,15.86728 0 0 0 -6.071193,1.2234541 c 0.326062,0.7642785 5.344,4.3754299 6.089074,4.3725239 0.737528,-0.0029 5.629166,-3.5768845 6.03887,-4.3931556 A 15.86728,15.86728 0 0 0 44.56964,6.11646 Z" /><path
     style="fill:#ffffff;fill-opacity:1;fill-rule:nonzero;stroke:none;stroke-width:0.31831;stroke-linecap:butt;stroke-linejoin:miter;stroke-miterlimit:10;stroke-dasharray:none;stroke-opacity:1"
     id="rect10054-4-5-8-0-0-9"
     width="2.3705802"
     height="12.8326"
     x="43.38435"
     y="7.0958085"
     sodipodi:type="rect"
     d="m 43.38435,7.0958085 h 2.37058 V 19.928408 h -2.37058 z" /><path
     sodipodi:type="star"
     style="fill:#ffffff;fill-opacity:1;stroke:none;stroke-width:0.31831;stroke-dasharray:none;stroke-opacity:1"
     id="path10327-5-8-0-7"
     inkscape:flatsided="true"
     sodipodi:sides="5"
     sodipodi:cx="111.21951"
     sodipodi:cy="41.803192"
     sodipodi:r1="35.609165"
     sodipodi:r2="28.80842"
     sodipodi:arg1="0.85399267"
     sodipodi:arg2="1.4823112"
     inkscape:rounded="0.1"
     inkscape:randomized="0"
     d="M 134.61396,68.64928 C 131.45801,71.399463 96.507468,74.500163 92.916648,72.348532 89.325828,70.196901 75.576574,37.915125 76.513272,33.835162 77.44997,29.755199 103.90301,6.7032642 108.07274,6.3333391 c 4.16973,-0.3699252 34.26786,17.6649709 35.9082,21.5163079 1.64034,3.851337 -6.21103,38.049451 -9.36698,40.799633 z"
     transform="matrix(0.07107391,-0.16508529,0.16508529,0.07107391,29.755299,37.905532)"
     inkscape:transform-center-x="-0.020054466"
     inkscape:transform-center-y="-1.2642751" /></g></g>
</svg>
