<?xml version="1.0" standalone="no"?>
<!DOCTYPE svg PUBLIC "-//W3C//DTD SVG 20010904//EN"
 "http://www.w3.org/TR/2001/REC-SVG-20010904/DTD/svg10.dtd">
<svg version="1.0" xmlns="http://www.w3.org/2000/svg"
 width="700.000000pt" height="700.000000pt" viewBox="0 0 700.000000 700.000000"
 preserveAspectRatio="xMidYMid meet">
<metadata>
Created by potrace 1.14, written by Peter Selinger 2001-2017
</metadata>
<g transform="translate(0.000000,700.000000) scale(0.100000,-0.100000)"
fill="#000000" stroke="none">
<path d="M3230 6995 c-8 -2 -55 -9 -105 -15 -575 -76 -1140 -355 -1555 -770
-161 -161 -276 -302 -371 -455 -24 -38 -46 -72 -49 -75 -3 -3 -11 -16 -19 -30
-303 -534 -422 -1105 -356 -1710 11 -98 44 -269 76 -385 70 -255 161 -473 288
-684 31 -51 89 -150 130 -220 308 -530 766 -1203 1122 -1651 546 -686 910
-1024 1075 -997 205 34 644 455 1215 1167 353 440 772 1029 994 1395 27 44 85
139 128 210 166 272 234 421 332 725 13 40 29 104 41 165 2 11 8 40 14 65 12
53 18 89 26 150 3 25 7 56 10 70 8 48 17 216 17 315 0 101 -11 304 -17 314 -2
3 -7 33 -10 66 -3 33 -8 71 -11 85 -3 14 -8 39 -11 55 -40 223 -153 544 -270
764 -44 83 -113 201 -124 211 -3 3 -25 34 -50 70 -99 144 -169 228 -305 365
-432 435 -955 695 -1590 791 -43 6 -600 14 -625 9z"/>
</g>
</svg>
